<svg version="1.1" xmlns="http://www.w3.org/2000/svg" xmlns:xlink="http://www.w3.org/1999/xlink" x="0px" y="0px"
	 width="46px" height="37px" viewBox="0 0 46 37" enable-background="new 0 0 46 37" xml:space="preserve">
<g id="cv-title">
  <g fill="none" stroke-width="1.3" stroke-linejoin="round" stroke-miterlimit="10" >
	<path d="M35.5,15.6
		c0-7.7-6.2-13.9-13.9-13.9h-5.8C8.1,1.7,1.9,7.9,1.9,15.6v5.8c0,7.7,6.2,13.9,13.9,13.9h5.8c7.7,0,13.9-6.2,13.9-13.9V15.6z
		 M35.5,15.6c0-7.7-6.2-13.9-13.9-13.9h-5.8C8.1,1.7,1.9,7.9,1.9,15.6v5.8c0,7.7,6.2,13.9,13.9,13.9h5.8c7.7,0,13.9-6.2,13.9-13.9
		V15.6z"/>
	<path d="M31.2,16.2
		C31.2,10.5,26.7,6,21,6h-4.6C10.8,6,6.2,10.5,6.2,16.2v4.6c0,5.7,4.6,10.2,10.2,10.2H21c5.7,0,10.2-4.6,10.2-10.2V16.2z M31.2,16.2
		C31.2,10.5,26.7,6,21,6h-4.6C10.8,6,6.2,10.5,6.2,16.2v4.6c0,5.7,4.6,10.2,10.2,10.2H21c5.7,0,10.2-4.6,10.2-10.2V16.2z"/>
	<path d="M30.4,19.8
		c0.7-0.7,0.7-1.8,0-2.6c-2.5-2.5-8-8-10.5-10.5c-0.7-0.7-1.8-0.7-2.6,0c-2.5,2.5-8,8-10.5,10.5c-0.7,0.7-0.7,1.9,0,2.6
		c2.5,2.5,8,8,10.5,10.5c0.7,0.7,1.9,0.7,2.6,0C22.5,27.7,28,22.3,30.4,19.8z M30.4,19.8c0.7-0.7,0.7-1.8,0-2.6
		c-2.5-2.5-8-8-10.5-10.5c-0.7-0.7-1.8-0.7-2.6,0c-2.5,2.5-8,8-10.5,10.5c-0.7,0.7-0.7,1.9,0,2.6c2.5,2.5,8,8,10.5,10.5
		c0.7,0.7,1.9,0.7,2.6,0C22.5,27.7,28,22.3,30.4,19.8z"/>
	<path  d="M24.5,12.7H12.9v11.7	h11.7V12.7z M24.5,12.7H12.9v11.7h11.7V12.7z"/>
</g>
<line fill="none" stroke-width="1.65" stroke-linecap="round" x1="43.9" y1="35.3" x2="43.9" y2="1.7"/>
  </g>
</svg>
